<svg width="48" height="48" viewBox="0 0 48 48" fill="none" xmlns="http://www.w3.org/2000/svg">
<circle cx="24" cy="24" r="24" fill="#1877F2"/>
<path d="M10.1655 30.6686L14.2079 16L17.3118 16L20.4639 27.3414L23.8325 16L27.0087 16L30.8104 30.5714C30.9227 31.0248 31.0671 31.3567 31.2435 31.5671C31.42 31.7776 31.6927 31.8829 32.0616 31.8829H33V33H25.6853V31.8829H26.8884C27.1611 31.8829 27.3455 31.7857 27.4418 31.5914C27.522 31.4133 27.522 31.13 27.4418 30.7414L24.386 18.72L21.1617 29.8186L21.3542 30.5714C21.4825 31.0248 21.6269 31.3567 21.7873 31.5671C21.9477 31.7776 22.1723 31.8829 22.461 31.8829H23.4475V33H16.3013V31.8829H17.5043C17.777 31.8829 17.9615 31.7857 18.0577 31.5914C18.154 31.4133 18.154 31.13 18.0577 30.7414L14.8576 18.8171L11.6574 30.7414C11.5451 31.1948 11.5371 31.4943 11.6333 31.64C11.7295 31.8019 11.922 31.8829 12.2108 31.8829H13.2695V33H8L8 31.8829L9.10683 31.8829C9.36349 31.8829 9.57202 31.7938 9.73244 31.6157C9.89285 31.4376 10.0372 31.1219 10.1655 30.6686Z" fill="white"/>
<path d="M37.4873 33C36.7428 33 36.1421 32.7723 35.6853 32.3169C35.2284 31.8616 35 31.2605 35 30.5137C35 29.7304 35.2284 29.1202 35.6853 28.6831C36.1421 28.2277 36.7428 28 37.4873 28C38.2318 28 38.8325 28.2277 39.2893 28.6831C39.7631 29.1202 40 29.7304 40 30.5137C40 31.2605 39.7631 31.8616 39.2893 32.3169C38.8325 32.7723 38.2318 33 37.4873 33Z" fill="white"/>
</svg>
